<?xml version="1.0" standalone="no"?>
<!DOCTYPE svg PUBLIC "-//W3C//DTD SVG 20010904//EN"
 "http://www.w3.org/TR/2001/REC-SVG-20010904/DTD/svg10.dtd">
<svg version="1.0" xmlns="http://www.w3.org/2000/svg"
 width="600.000000pt" height="600.000000pt" viewBox="0 0 600.000000 600.000000"
 preserveAspectRatio="xMidYMid meet">
<metadata>
Created by potrace 1.11, written by Peter Selinger 2001-2013
</metadata>
<g transform="translate(0.000000,600.000000) scale(0.100000,-0.100000)"
fill="#000000" stroke="none">
<path d="M5440 5893 c-69 -25 -181 -65 -250 -90 -124 -44 -450 -135 -816 -229
l-191 -48 -144 71 c-338 167 -636 243 -1109 282 -63 5 -116 8 -118 6 -2 -1 11
-22 28 -46 25 -37 100 -221 100 -248 0 -5 -63 -62 -140 -126 -192 -159 -255
-219 -274 -259 -22 -47 -20 -126 9 -356 43 -334 44 -607 2 -807 -16 -76 -54
-134 -169 -257 l-82 -89 -56 60 c-96 105 -156 244 -185 428 l-6 40 151 64 c83
35 149 65 148 66 -2 2 -70 -3 -153 -10 -82 -7 -154 -9 -159 -5 -4 5 -6 111 -3
237 7 323 11 339 180 683 193 396 227 470 214 470 -7 0 -32 -44 -56 -98 -25
-53 -106 -223 -182 -377 -97 -198 -142 -300 -153 -350 -23 -108 -39 -327 -33
-457 l5 -116 -61 -7 c-34 -4 -65 -12 -69 -19 -10 -15 0 278 13 423 22 234 80
376 320 777 61 102 108 188 105 191 -3 3 -20 2 -38 -3 -28 -8 -46 -31 -130
-169 -112 -183 -234 -423 -273 -539 -27 -83 -54 -237 -56 -321 l-1 -50 -26 89
c-25 86 -25 93 -14 184 7 54 23 121 38 156 48 114 75 201 124 389 38 145 45
187 34 187 -8 0 -14 -9 -14 -19 0 -55 -107 -410 -164 -546 -14 -33 -31 -93
-37 -134 l-12 -74 -29 82 -30 81 73 285 c40 157 70 287 68 289 -2 2 -41 -4
-86 -13 l-82 -16 -33 -132 c-18 -73 -35 -129 -39 -125 -4 4 -16 33 -28 65 -58
156 -61 163 -91 181 -57 33 -49 52 -174 -404 -65 -238 -93 -358 -109 -460 -3
-14 -5 -7 -6 18 -1 51 25 241 85 615 24 153 44 284 44 290 0 7 -11 17 -24 23
l-23 11 -17 -146 c-9 -80 -41 -333 -71 -561 -64 -492 -95 -777 -95 -870 0 -38
18 -177 40 -310 l39 -241 118 -127 c65 -70 128 -140 140 -157 26 -38 37 -89
24 -112 -11 -20 -9 -23 -31 49 -17 55 -247 308 -280 308 -8 0 -32 -11 -53 -25
-51 -35 -49 -61 19 -175 83 -143 133 -251 155 -341 18 -70 19 -87 9 -131 -16
-67 -93 -179 -197 -289 -102 -107 -176 -157 -294 -199 -98 -36 -98 -35 -74
-115 9 -27 13 -55 11 -62 -11 -28 -24 -10 -42 58 -16 63 -20 70 -39 64 -11 -3
-68 -18 -127 -33 -59 -15 -108 -30 -108 -34 0 -13 19 -10 120 18 52 14 101 27
109 28 9 0 20 -22 32 -62 l18 -63 -45 -19 c-25 -11 -78 -32 -119 -46 -52 -18
-75 -32 -75 -43 0 -10 3 -12 8 -5 11 16 131 54 137 43 11 -16 -3 -26 -62 -44
-58 -17 -89 -35 -64 -35 18 0 160 49 202 71 l36 18 37 -130 c21 -72 36 -133
33 -135 -3 -3 -65 -1 -138 5 -163 13 -176 14 -164 2 11 -10 314 -35 323 -26 3
3 -13 69 -35 148 -27 97 -37 144 -29 149 17 11 20 3 61 -142 20 -74 41 -139
45 -144 6 -6 446 76 530 100 13 3 19 53 34 317 19 350 42 612 58 672 5 22 10
54 9 70 -2 40 7 75 19 75 6 0 10 -16 10 -35 0 -19 3 -35 6 -35 8 0 146 119
389 335 229 203 567 540 628 626 54 76 70 133 88 309 15 150 5 382 -26 625
-14 105 -25 227 -25 271 0 74 3 84 28 116 37 46 123 125 266 242 119 98 135
104 136 54 0 -9 -59 -65 -132 -126 -73 -60 -159 -137 -190 -170 -70 -73 -68
-59 -31 -336 24 -176 27 -234 27 -471 0 -240 -2 -281 -21 -369 -22 -99 -43
-140 -120 -234 l-27 -34 187 4 c212 3 200 -1 251 94 39 73 51 80 112 68 36 -6
50 -14 52 -28 3 -14 0 -17 -13 -12 -9 3 -34 9 -55 12 l-38 6 -37 -71 c-21 -40
-47 -77 -59 -84 -13 -7 -98 -14 -226 -17 l-205 -6 -155 -155 c-170 -169 -366
-348 -620 -568 -91 -79 -168 -148 -172 -155 -8 -14 -24 -158 -38 -331 -12
-148 -40 -639 -37 -642 1 -1 50 12 107 28 58 16 177 48 265 70 l160 39 310
-25 c171 -13 340 -27 377 -30 78 -7 67 -24 93 145 27 174 44 235 126 460 124
344 198 543 204 548 3 3 9 1 14 -4 6 -5 -47 -164 -130 -394 -85 -234 -147
-422 -159 -480 -26 -132 -45 -268 -38 -276 4 -3 208 -7 455 -7 511 -2 414 -15
838 108 121 35 236 67 256 70 38 7 246 -10 602 -50 120 -14 224 -25 232 -25 7
0 25 26 40 58 22 47 26 66 20 107 -19 154 -107 418 -184 555 -39 69 -56 108
-50 115 15 15 40 -22 108 -160 60 -119 112 -276 145 -438 21 -102 20 -125 -9
-188 -16 -36 -36 -123 -59 -259 -69 -404 -82 -437 -233 -562 -136 -114 -143
-122 -143 -163 0 -28 8 -45 33 -70 38 -38 88 -51 242 -60 380 -22 437 -31 530
-79 33 -17 63 -32 68 -34 4 -2 7 6 7 17 0 14 -6 21 -18 21 -10 0 -37 9 -60 20
-69 33 -148 48 -327 60 -204 14 -210 15 -236 41 -53 53 6 197 141 348 150 167
276 376 295 487 24 147 -125 625 -269 868 -23 37 -64 92 -92 122 l-52 53 52
19 c28 11 98 36 155 57 l104 37 101 -101 c96 -96 102 -105 123 -174 32 -107
118 -232 195 -288 43 -31 25 -1 -40 67 -58 62 -110 147 -137 226 l-15 43 33
-36 c18 -20 63 -89 101 -153 66 -112 90 -142 65 -80 -7 16 -12 32 -11 37 1 4
-2 7 -8 7 -5 0 -25 28 -44 63 -53 93 -75 120 -217 263 -105 106 -127 133 -113
138 14 5 48 -23 141 -116 68 -68 142 -149 164 -182 21 -32 39 -55 39 -52 0 22
-50 97 -100 151 -63 67 -65 79 -31 143 16 31 13 37 -8 18 -11 -10 -23 -31 -26
-47 -4 -16 -10 -29 -14 -29 -3 0 -35 28 -69 63 l-63 64 71 24 c59 20 72 28 76
49 52 246 168 594 389 1169 l66 174 -40 141 c-22 78 -81 304 -131 504 -102
411 -136 533 -185 661 -39 103 -62 151 -73 150 -4 0 -63 -21 -132 -46z m-3648
-348 c-5 -29 -5 -29 -49 -13 -40 15 -42 25 -5 31 58 9 59 8 54 -18z m388 -35
c0 -7 -48 -94 -66 -118 -1 -2 -9 0 -17 5 -11 6 -8 19 20 66 30 50 63 75 63 47z
m799 -67 c23 -88 176 -904 198 -1053 3 -24 -12 -101 -47 -235 -28 -110 -53
-201 -55 -203 -2 -3 -18 1 -36 7 -47 16 -94 14 -111 -6 -9 -10 -30 -46 -46
-79 -21 -42 -38 -63 -54 -67 -13 -3 -93 -9 -178 -13 l-154 -7 35 41 c103 120
124 222 123 582 0 218 -4 284 -27 456 -15 110 -27 223 -27 250 0 47 3 53 53
101 62 61 299 262 309 263 4 0 12 -17 17 -37z m1791 -528 l0 -325 340 0 340 0
0 -285 0 -285 -340 0 -340 0 0 -325 0 -325 -285 0 -285 0 0 325 0 325 -337 2
-338 3 -4 30 c-1 17 0 144 4 283 l7 252 334 0 334 0 0 325 0 325 285 0 285 0
0 -325z m-2800 210 c0 -3 -12 -34 -26 -70 -25 -61 -52 -83 -47 -38 4 38 42
113 58 113 8 0 15 -2 15 -5z m-114 -477 c-3 -29 -6 -61 -6 -70 0 -10 -7 -18
-15 -18 -11 0 -15 12 -15 48 0 63 9 92 28 92 12 0 14 -9 8 -52z m-723 -514 c2
-142 1 -286 -2 -319 -6 -59 -6 -59 -29 85 -12 80 -20 165 -17 190 2 25 9 99
15 165 12 121 17 152 25 143 3 -2 6 -121 8 -264z m124 242 c1 -1 -3 -59 -10
-129 -25 -287 48 -561 194 -723 38 -42 71 -91 81 -119 l18 -47 -42 -94 -41
-94 -28 47 c-15 27 -80 103 -144 171 l-117 123 -8 72 c-5 40 -6 238 -3 440 l6
369 46 -7 c25 -4 47 -8 48 -9z m88 -6 c23 0 23 0 28 -182 8 -284 46 -415 177
-611 l50 -75 -21 -48 -20 -48 -19 41 c-10 22 -47 73 -83 111 -73 80 -112 161
-154 321 -21 80 -26 121 -27 241 -1 178 9 264 31 256 8 -3 25 -6 38 -6z m141
-16 c19 -5 21 -11 16 -52 -2 -26 -5 -48 -6 -48 0 -1 -25 -4 -53 -6 l-53 -5 0
52 c0 28 3 55 7 58 8 8 60 9 89 1z m199 -13 l40 -7 7 -119 c3 -66 11 -160 18
-210 l12 -90 -42 -117 c-23 -65 -46 -118 -52 -118 -13 0 -80 148 -113 250 -30
93 -44 266 -31 373 l7 55 57 -5 c31 -3 75 -9 97 -12z m111 -143 c-4 -73 -10
-151 -13 -173 l-7 -40 -7 40 c-4 22 -11 100 -15 173 l-7 132 28 0 28 0 -7
-132z m44 -13 c0 -65 -2 -75 -17 -75 -16 0 -18 9 -15 75 3 57 7 75 18 75 11 0
14 -17 14 -75z m179 -50 c26 -159 78 -270 180 -391 l59 -71 -95 -94 -94 -94
-40 45 c-51 58 -148 199 -187 273 -30 56 -30 58 -16 100 8 24 20 90 27 146
l12 103 65 28 c36 16 67 29 71 29 3 1 11 -33 18 -74z m1032 -252 c7 -7 -134
-580 -145 -591 -6 -5 -156 72 -269 139 -112 67 -277 186 -277 200 0 5 19 30
41 54 l42 45 171 0 c179 1 248 10 279 38 11 9 33 43 49 76 29 58 30 58 65 53
20 -4 40 -10 44 -14z m-1281 -77 c0 -22 -42 -126 -51 -126 -18 0 -17 21 4 79
20 55 47 82 47 47z m102 -115 c31 -47 82 -117 112 -155 l56 -70 -42 -44 c-68
-70 -76 -71 -116 -26 -119 135 -162 189 -162 202 0 9 17 60 38 114 29 77 39
95 47 82 6 -9 36 -55 67 -103z m704 -256 c48 -30 140 -82 205 -115 115 -59
119 -62 113 -88 -4 -15 -7 -31 -8 -35 0 -5 31 -20 69 -34 39 -15 72 -28 74
-29 2 -2 -18 -61 -44 -133 -55 -149 -36 -141 -193 -87 -204 69 -342 166 -572
401 l-95 97 103 98 103 98 79 -59 c43 -33 118 -84 166 -114z m-1429 3 c5 -7
19 -53 31 -101 24 -99 62 -190 95 -226 12 -13 42 -37 67 -54 25 -16 46 -31 48
-32 4 -4 -89 -203 -169 -361 -107 -212 -174 -313 -249 -371 -69 -53 -239 -155
-250 -148 -7 5 -34 115 -28 120 1 1 37 15 78 29 107 39 180 87 274 180 158
159 226 269 226 368 0 78 -48 222 -106 323 -86 146 -124 223 -119 237 7 17 55
47 76 48 9 0 21 -6 26 -12z m447 -76 c-9 -21 -21 -50 -26 -65 -7 -18 -16 -27
-27 -24 -20 4 -19 7 13 79 18 42 30 56 41 52 13 -5 13 -10 -1 -42z m-249 -138
c23 -27 39 -60 49 -102 8 -33 12 -63 9 -66 -20 -20 -127 79 -156 142 -20 46
-57 169 -57 187 1 10 84 -77 155 -161z m1163 -194 c101 -67 231 -125 365 -164
31 -9 57 -18 57 -20 0 -6 -70 -190 -74 -193 -10 -10 -237 103 -319 159 -148
99 -282 210 -440 367 l-108 106 56 53 55 54 152 -147 c104 -101 184 -168 256
-215z m-841 143 l21 -28 -83 -72 c-62 -53 -89 -70 -105 -66 -31 8 -25 49 21
149 23 49 45 100 50 112 9 23 10 23 42 -21 17 -25 42 -58 54 -74z m1907 -225
l470 -163 -204 -9 c-310 -13 -616 9 -782 58 l-55 16 46 130 c25 71 48 130 51
130 2 0 216 -73 474 -162z m-1810 65 c13 -27 41 -67 62 -91 l39 -42 43 11 c40
11 45 10 70 -13 247 -224 432 -374 507 -409 52 -25 72 -29 146 -29 48 0 100
-3 116 -6 l30 -6 -21 -69 c-11 -38 -24 -69 -29 -69 -5 0 -116 36 -247 79 -254
84 -426 158 -437 188 -3 10 -33 42 -65 72 -32 29 -91 99 -130 155 -92 130
-114 153 -157 167 -20 6 -40 15 -44 19 -7 6 75 90 88 90 2 0 15 -21 29 -47z
m-342 -19 c6 -5 -37 -110 -51 -126 -3 -4 -12 -4 -19 1 -10 6 -6 22 15 69 26
56 40 71 55 56z m-1 -93 c-21 -38 -46 -320 -72 -791 -6 -118 -12 -215 -13
-216 -15 -7 -509 -104 -513 -101 -4 5 -83 266 -83 277 0 3 33 23 73 44 104 57
206 128 254 178 77 80 210 314 314 552 23 55 44 95 47 88 2 -6 -2 -20 -7 -31z
m740 -17 c173 -151 400 -290 597 -366 38 -15 43 -20 37 -40 -4 -13 -8 -23 -9
-24 0 -1 -57 2 -126 5 -180 9 -153 -7 -509 306 -88 77 -160 143 -160 146 -1 8
57 27 85 28 12 1 48 -23 85 -55z m-420 -1 c19 -21 48 -56 64 -78 l28 -40 -29
28 c-17 15 -35 27 -40 27 -15 0 -98 -150 -88 -158 5 -4 82 -43 172 -87 139
-68 165 -78 172 -64 8 13 23 8 107 -33 54 -26 211 -85 348 -130 138 -45 251
-83 253 -84 7 -5 -42 -274 -49 -274 -5 0 -8 28 -6 62 l2 61 -275 63 c-151 34
-278 60 -282 58 -3 -2 -16 -47 -29 -99 l-23 -95 -63 0 -63 0 6 43 6 43 -128
31 c-71 17 -184 44 -252 59 l-123 29 6 95 c3 52 8 116 11 142 6 45 7 46 31 37
13 -5 28 -9 33 -9 9 0 84 129 78 135 -1 1 -31 17 -65 34 -35 17 -63 35 -63 41
0 21 20 18 71 -10 30 -16 57 -30 61 -30 5 0 33 39 64 87 l56 86 -21 28 c-40
53 -19 54 30 2z m3328 -32 c70 -82 115 -159 177 -307 107 -255 169 -491 163
-623 -4 -67 -10 -89 -47 -164 -52 -105 -150 -238 -189 -256 -15 -7 -45 -19
-67 -27 -35 -13 -38 -13 -31 4 13 33 46 198 80 392 23 136 41 213 60 255 26
57 27 61 15 134 -15 92 -69 291 -105 386 -14 39 -50 113 -80 167 -30 53 -55
99 -55 102 0 19 26 -2 79 -63z m-97 -43 c87 -157 124 -254 173 -458 30 -127
31 -154 5 -214 -19 -41 -24 -46 -54 -46 l-34 0 -4 138 c-3 130 -5 141 -36 207
-26 54 -53 89 -125 161 -100 98 -177 144 -278 165 -30 6 -61 14 -69 16 -14 5
323 109 361 112 10 1 32 -30 61 -81z m-1893 -13 c172 -46 455 -62 804 -46
l238 10 72 -26 71 -25 98 27 c82 23 110 27 163 21 152 -15 263 -73 380 -198
97 -102 127 -171 133 -304 3 -56 1 -115 -2 -130 -7 -27 -8 -27 -73 -21 -36 4
-67 8 -69 10 -2 2 1 45 7 95 18 146 -7 210 -116 310 -85 78 -155 109 -295 131
-126 20 -461 -13 -786 -79 -109 -22 -244 -43 -299 -46 -110 -7 -177 5 -383 68
-116 36 -110 19 -60 151 24 63 34 77 47 72 9 -4 40 -13 70 -20z m-1871 -263
c-39 -72 -40 -73 -56 -63 -19 11 52 133 73 125 11 -5 8 -17 -17 -62z m3227
-42 c122 -18 176 -38 216 -81 60 -65 89 -134 89 -212 0 -79 18 -73 -179 -53
-111 11 -126 14 -140 35 -71 102 -139 149 -269 182 -102 26 -183 24 -359 -8
-230 -42 -430 -35 -723 23 -187 37 -216 47 -212 75 1 12 4 24 6 26 1 2 35 -8
75 -22 103 -35 264 -74 350 -84 96 -12 219 1 441 46 411 83 538 96 705 73z
m-1486 -112 c166 -50 359 -78 554 -80 105 -1 163 4 287 26 185 34 303 32 411
-4 74 -25 151 -79 181 -127 l20 -33 -71 0 c-71 0 -72 0 -77 30 -4 17 -12 30
-18 30 -6 0 -65 -13 -131 -28 l-120 -28 -45 20 c-42 20 -64 21 -360 21 l-315
1 -165 42 -165 41 -28 -20 c-24 -17 -32 -18 -68 -9 -33 9 -39 15 -35 31 4 10
9 29 12 42 15 60 26 78 46 71 11 -3 50 -15 87 -26z m-1989 -142 c0 -12 -44
-46 -97 -74 -17 -9 -22 -9 -26 3 -4 9 13 26 51 49 63 39 72 42 72 22z m1890
-5 c0 -4 -12 -14 -26 -22 -15 -7 -30 -23 -35 -34 -6 -13 -7 -7 -3 20 4 22 8
43 10 46 5 8 54 -1 54 -10z m250 -50 c62 -8 59 -8 -52 -9 l-117 -2 -16 -30
c-8 -16 -15 -31 -15 -33 0 -2 146 -4 325 -6 l325 -2 0 35 c0 34 1 35 46 42 64
9 305 0 328 -13 16 -9 -2 -15 -95 -37 -205 -48 -189 -40 -189 -90 0 -35 -4
-45 -20 -49 -18 -5 -20 0 -20 45 l0 50 -37 -6 c-21 -3 -175 -8 -342 -12 -167
-3 -315 -10 -330 -13 -19 -5 -27 -15 -29 -34 -3 -25 -7 -27 -53 -27 -47 0 -49
1 -49 28 0 15 3 44 6 64 6 37 7 38 43 32 34 -5 38 -3 69 41 l33 47 62 -6 c34
-3 91 -10 127 -15z m-1628 -216 c2 -32 -1 -39 -21 -46 -23 -9 -24 -9 -17 37 3
26 7 81 7 123 l1 76 13 -76 c7 -42 15 -93 17 -114z m3604 -577 c-91 -113 -145
-249 -126 -317 5 -19 7 -37 5 -39 -3 -3 -31 0 -62 6 -68 14 -113 54 -113 101
0 26 19 45 158 155 86 69 159 125 161 125 2 1 -8 -14 -23 -31z"/>
<path d="M1604 2549 c-19 -39 -32 -75 -27 -79 11 -9 434 -152 438 -148 13 13
44 103 38 109 -7 6 -281 132 -380 175 l-33 14 -36 -71z"/>
<path d="M1529 2365 c-16 -35 -29 -70 -29 -78 0 -14 442 -123 459 -113 12 8
46 95 39 102 -3 2 -103 38 -222 79 l-217 75 -30 -65z"/>
<path d="M2156 2391 c-3 -4 -14 -30 -25 -57 l-20 -51 117 -33 c64 -18 124 -35
133 -37 12 -3 19 7 28 41 20 81 37 68 -176 130 -29 8 -55 11 -57 7z"/>
<path d="M2436 2263 c-9 -26 -13 -50 -9 -54 9 -8 163 -42 167 -37 6 8 36 92
33 94 -4 3 -157 44 -166 44 -5 0 -16 -21 -25 -47z"/>
<path d="M1010 5607 c0 -129 -52 -682 -71 -751 -11 -39 -27 -58 -132 -152 -86
-78 -106 -148 -88 -310 16 -147 35 -199 99 -263 68 -68 80 -88 98 -153 25 -95
19 -135 -36 -250 -66 -138 -94 -248 -88 -345 6 -84 22 -113 123 -224 76 -83
91 -123 105 -280 20 -215 -26 -372 -128 -443 -52 -35 -84 -46 -167 -53 -66 -5
-73 -4 -78 13 -4 11 -20 73 -38 139 -23 88 -40 132 -65 165 -47 64 -392 406
-400 397 -4 -4 -3 -12 3 -18 6 -6 9 -19 6 -28 -4 -12 -3 -13 5 -3 13 19 358
-326 389 -388 13 -25 41 -114 64 -198 42 -153 42 -153 68 -147 74 19 183 71
243 115 116 87 275 286 298 371 20 73 -30 225 -124 384 -78 131 -96 170 -96
208 0 36 31 73 86 100 l31 16 -39 233 c-56 333 -57 296 43 1078 100 773 111
875 89 825 -5 -11 -16 -83 -25 -160 -8 -77 -38 -320 -67 -540 l-51 -400 -60
-61 c-56 -58 -58 -62 -35 -67 12 -4 35 -7 51 -7 32 0 31 11 12 -155 -8 -71
-15 -158 -15 -193 0 -50 52 -412 76 -524 4 -19 1 -28 -7 -28 -24 0 -87 -51
-99 -81 -18 -41 -6 -84 46 -174 96 -164 115 -202 145 -295 38 -117 34 -153
-23 -242 -43 -67 -128 -171 -135 -165 -2 2 4 24 12 48 22 63 31 215 16 291
-38 195 -43 206 -144 316 -61 66 -77 91 -87 132 -22 92 6 221 82 382 49 104
51 109 45 175 -9 113 -30 163 -93 224 -30 30 -64 70 -73 89 -57 112 -57 325 0
417 11 18 49 55 84 83 35 28 73 66 85 84 26 43 41 150 75 520 27 297 27 399
-1 410 -12 4 -14 -16 -14 -117z m-312 -3268 c-20 -13 -38 -11 -38 5 0 9 8 12
26 8 19 -3 22 -7 12 -13z"/>
<path d="M160 3023 c0 -18 41 -65 165 -188 78 -77 153 -159 168 -180 14 -22
37 -84 51 -137 15 -54 29 -104 32 -112 5 -12 -11 -13 -95 -9 -70 4 -101 3
-101 -5 0 -12 31 -18 134 -26 69 -6 86 -15 86 -47 0 -15 -42 -31 -190 -70 -25
-6 -39 -14 -31 -17 14 -5 208 44 231 58 11 7 5 38 -30 167 -24 87 -50 172 -58
188 -13 25 -362 390 -362 378z"/>
<path d="M4285 2113 c-11 -2 -119 -33 -240 -68 -426 -123 -326 -110 -852 -110
l-462 1 -6 -61 c-4 -33 -2 -71 3 -85 5 -14 47 -74 92 -134 45 -59 88 -123 95
-140 8 -18 21 -97 30 -176 18 -156 38 -243 31 -132 -4 56 -2 62 16 62 10 0 28
-5 39 -10 20 -11 28 3 9 15 -18 11 -10 23 34 49 69 40 159 60 241 52 77 -6
124 -14 137 -22 4 -3 11 1 14 9 3 8 20 18 37 23 35 9 -155 21 -365 23 -65 0
-118 4 -118 9 1 24 31 29 230 39 118 6 223 14 233 18 47 19 4 24 -150 17 -93
-4 -217 -7 -277 -7 l-109 0 -10 30 c-5 17 -16 37 -24 46 -12 15 -11 17 9 23
13 3 93 6 178 7 85 0 178 4 205 7 45 6 50 10 53 35 3 26 1 27 -39 27 -50 0
-42 11 21 29 32 9 45 10 48 2 4 -12 83 -15 156 -5 39 6 46 10 46 29 0 22 17
35 46 35 9 0 14 -11 14 -31 0 -30 2 -31 33 -26 17 3 86 14 152 23 116 18 123
20 280 101 l160 83 75 94 c41 53 78 95 83 96 16 0 6 -81 -14 -114 -21 -36 -39
-40 -39 -9 0 9 -30 -13 -75 -56 -54 -51 -101 -84 -167 -117 -181 -91 -183 -91
-578 -130 -65 -6 -150 -31 -150 -43 0 -21 83 -34 205 -33 89 1 123 -2 108 -8
-38 -16 -26 -23 29 -17 63 8 78 -3 78 -55 0 -26 5 -41 16 -45 10 -3 74 17 148
47 211 86 235 99 367 212 l56 47 -10 53 c-9 51 -7 56 26 111 31 51 35 64 31
109 l-5 50 38 -6 c21 -3 67 -8 103 -11 36 -3 83 -8 104 -12 l39 -5 -6 -145
c-7 -168 -17 -198 -100 -286 -65 -69 -327 -240 -472 -307 -116 -55 -143 -83
-41 -44 11 4 16 1 16 -10 0 -9 4 -16 8 -16 4 0 16 -17 25 -37 l17 -38 -32 -28
c-47 -41 -15 -28 125 50 105 58 122 64 150 57 30 -9 29 -10 -111 -102 -79 -52
-142 -100 -142 -109 0 -19 50 9 203 113 59 41 109 74 111 74 4 0 -9 -54 -51
-213 -19 -71 -33 -131 -31 -133 2 -2 69 48 148 111 l145 114 14 -27 c43 -86
95 -108 282 -122 79 -6 198 -19 264 -30 66 -10 149 -22 185 -26 62 -6 131 -32
145 -54 7 -12 35 -14 35 -2 0 7 -41 33 -102 64 -58 28 -114 36 -399 57 -287
21 -318 28 -362 80 -33 39 -41 70 -33 116 6 29 26 50 120 129 142 118 168 158
200 302 30 132 81 432 75 438 -5 4 -650 73 -754 80 -38 2 -79 2 -90 -1z m33
-21 c-1 -4 -23 -35 -46 -68 -43 -60 -46 -62 -190 -127 -81 -36 -169 -69 -196
-73 l-50 -7 36 32 c20 17 43 31 53 31 9 0 79 27 156 61 121 53 141 66 160 98
12 20 29 42 37 49 17 13 46 17 40 4z m693 -61 c14 -1 15 -8 8 -48 -40 -217
-153 -406 -343 -570 -85 -75 -67 -47 43 65 116 117 176 208 187 281 4 29 1 77
-10 132 -9 47 -16 101 -16 120 l0 35 58 -7 c31 -4 64 -8 73 -8z m97 -17 c14
-11 -81 -483 -108 -539 -19 -39 -24 -42 -157 -92 -189 -70 -202 -62 -85 55 81
81 182 215 182 241 0 7 11 33 24 59 26 50 71 193 81 255 5 34 8 37 33 31 15
-4 29 -8 30 -10z m-2345 -101 c-7 -2 -13 -12 -13 -20 0 -9 -3 -14 -6 -10 -10
10 4 37 18 36 10 0 10 -2 1 -6z m881 -15 c3 -13 6 -35 6 -49 l0 -26 92 18 c50
11 93 17 95 15 6 -6 -39 -32 -77 -44 -84 -28 -167 -42 -243 -42 -95 0 -127 -7
-127 -26 0 -7 -19 -18 -42 -24 -24 -6 -73 -20 -110 -30 -53 -16 -97 -20 -227
-20 -112 0 -161 -3 -161 -11 0 -6 -18 11 -39 37 -28 35 -35 50 -25 52 8 2 14
16 14 33 l0 29 406 0 406 0 -4 55 c-2 46 0 55 13 55 9 0 19 -10 23 -22z"/>
<path d="M1935 1993 c-295 -68 -525 -133 -525 -148 0 -7 -87 -29 -232 -59
-128 -26 -263 -55 -300 -63 l-68 -15 0 -99 c0 -63 -7 -132 -20 -190 -12 -51
-18 -94 -16 -97 17 -16 56 185 56 283 l0 90 258 53 c141 30 267 56 279 59 18
4 24 -1 29 -22 7 -27 8 -27 68 -21 33 3 154 8 269 12 l207 6 -1 37 c0 20 -4
61 -9 91 -4 30 -4 59 0 63 4 5 54 4 111 -1 57 -5 87 -10 67 -11 l-38 -1 0 -95
0 -95 103 0 c57 0 192 -3 300 -7 l195 -6 5 29 c4 26 4 27 6 4 1 -14 28 -62 61
-108 33 -46 60 -85 60 -88 0 -2 -120 -4 -267 -4 -260 0 -271 1 -357 26 l-90
27 -105 -22 c-188 -39 -1159 -286 -1170 -297 -11 -11 76 9 449 103 476 121
677 169 765 184 65 11 76 10 160 -14 84 -25 103 -27 290 -27 110 0 237 3 281
6 l81 7 -68 89 c-74 97 -85 128 -75 213 l6 52 -93 7 c-127 10 -563 45 -612 50
-22 2 -49 2 -60 -1z m-26 -27 c-6 -5 -456 -136 -468 -136 -6 0 -11 4 -11 8 0
8 30 17 295 88 149 40 195 50 184 40z m339 -13 c-10 -2 -26 -2 -35 0 -10 3 -2
5 17 5 19 0 27 -2 18 -5z m125 -10 c-7 -2 -19 -2 -25 0 -7 3 -2 5 12 5 14 0
19 -2 13 -5z m130 -10 c-7 -2 -19 -2 -25 0 -7 3 -2 5 12 5 14 0 19 -2 13 -5z
m145 -10 c-10 -2 -26 -2 -35 0 -10 3 -2 5 17 5 19 0 27 -2 18 -5z m29 -50 c-3
-10 -5 -2 -5 17 0 19 2 27 5 18 2 -10 2 -26 0 -35z"/>
<path d="M1562 1733 c-130 -3 -143 -5 -138 -21 3 -9 10 -54 17 -100 9 -68 14
-82 28 -78 9 2 123 30 254 62 256 63 248 59 231 122 -7 24 20 23 -392 15z"/>
<path d="M436 1722 c-6 -10 23 -14 234 -30 l95 -7 3 -64 c2 -43 -5 -100 -22
-173 -28 -115 -31 -143 -16 -117 23 39 50 194 50 283 l0 93 -147 7 c-82 4
-158 10 -169 12 -12 3 -25 1 -28 -4z"/>
<path d="M2180 1680 l0 -40 63 0 c34 0 140 -3 235 -7 l172 -6 0 46 0 47 -235
0 -235 0 0 -40z"/>
<path d="M1910 1556 c-226 -52 -982 -246 -999 -257 -23 -14 -6 -10 499 116
481 121 630 155 667 155 12 0 62 -11 109 -25 65 -19 112 -25 188 -26 l101 -1
-75 -19 c-162 -40 -377 -81 -436 -82 -34 -1 -60 -5 -57 -9 2 -5 -10 -8 -28 -8
-36 0 -39 -7 30 74 18 21 30 40 28 42 -2 2 -30 -1 -63 -6 -111 -20 -104 -15
-104 -68 l0 -49 33 3 32 3 -30 -9 c-16 -5 -55 -15 -85 -23 l-55 -15 51 -1 c95
-2 407 50 669 111 204 48 283 62 365 66 l106 4 12 -26 c6 -14 10 -26 7 -26
-43 0 -247 -35 -273 -47 -24 -10 -83 -19 -162 -23 -122 -7 -213 -29 -294 -72
-23 -12 -25 -16 -13 -32 12 -17 15 -17 56 0 24 9 38 20 31 24 -12 8 55 30 91
30 20 0 21 -2 9 -11 -11 -7 5 -9 57 -7 70 3 102 -5 69 -18 -9 -3 -16 -10 -16
-15 0 -5 11 -4 25 1 22 8 31 5 66 -27 53 -48 83 -106 69 -133 -6 -11 -9 -20
-6 -20 2 0 43 25 92 55 84 53 115 66 197 80 37 6 37 6 37 -28 l0 -34 -53 1
c-43 0 -65 -6 -118 -36 -109 -61 -107 -59 -99 -163 4 -55 3 -95 -3 -102 -14
-19 24 -17 49 2 10 8 28 14 39 15 11 0 48 10 83 22 54 19 62 25 62 47 0 15 8
31 20 39 23 14 26 32 6 32 -13 0 -12 7 2 48 l16 47 10 -55 c17 -98 18 -24 2
142 -20 198 -34 274 -54 290 -12 10 -82 12 -306 10 -286 -3 -293 -3 -384 22
-51 15 -101 26 -110 25 -9 0 -82 -15 -162 -33z"/>
<path d="M4165 1514 c-167 -59 -211 -73 -297 -90 -114 -22 -119 -34 -17 -35
46 -1 87 -1 90 -1 4 1 10 -9 13 -21 3 -12 20 -36 37 -52 l32 -30 -21 32 c-12
17 -22 38 -22 46 0 11 43 29 143 62 146 49 177 65 177 95 0 14 -19 31 -33 30
-1 0 -47 -16 -102 -36z"/>
<path d="M3607 1464 c-4 -4 -7 -187 -7 -406 l0 -398 50 0 50 0 0 183 c0 100 5
198 10 218 5 19 23 48 40 64 25 24 40 30 93 33 120 8 137 -32 137 -312 l0
-186 51 0 51 0 -4 223 c-3 192 -6 227 -22 257 -43 81 -89 110 -176 110 -66 0
-120 -21 -155 -60 l-20 -22 -5 148 -5 149 -40 3 c-23 2 -44 0 -48 -4z"/>
<path d="M315 1321 c6 -5 80 -12 165 -15 103 -3 135 -2 95 3 -111 16 -271 23
-260 12z"/>
<path d="M300 1273 c0 -12 128 -68 136 -60 3 3 -11 15 -33 27 l-38 21 77 -5
c43 -2 80 0 83 5 4 5 -9 9 -27 9 -18 0 -70 3 -115 7 -53 4 -83 2 -83 -4z"/>
<path d="M652 1237 c-54 -20 -99 -63 -129 -124 -26 -53 -28 -67 -28 -168 1
-95 4 -117 24 -158 58 -118 184 -172 313 -133 113 34 170 121 176 272 7 153
-40 254 -141 303 -49 24 -159 28 -215 8z m152 -81 c96 -40 135 -210 77 -340
-25 -57 -69 -86 -131 -86 -99 0 -154 77 -154 215 1 114 33 182 99 211 39 17
68 17 109 0z"/>
<path d="M1225 1231 c-89 -40 -125 -129 -87 -215 26 -57 60 -78 173 -106 112
-28 139 -48 139 -101 0 -34 -5 -42 -32 -59 -57 -35 -166 -25 -281 25 -16 7
-18 2 -15 -46 l3 -53 45 -14 c25 -8 90 -15 145 -16 85 -1 106 3 141 21 82 44
116 113 94 194 -17 62 -55 94 -141 119 -156 46 -170 52 -181 75 -46 102 114
146 285 79 16 -6 18 -1 15 42 -3 47 -4 49 -43 60 -65 20 -213 17 -260 -5z"/>
<path d="M1885 1236 c-16 -7 -42 -25 -57 -40 l-27 -27 -3 33 c-3 32 -5 33 -50
36 l-48 3 0 -290 0 -291 50 0 50 0 0 195 c0 176 2 200 20 235 25 48 64 70 125
70 103 0 115 -32 115 -300 l0 -200 50 0 50 0 0 178 c0 200 8 242 55 289 29 29
40 33 85 33 113 0 123 -24 128 -292 l4 -208 50 0 50 0 -4 218 c-3 177 -7 224
-22 257 -35 80 -86 115 -171 115 -67 0 -121 -25 -162 -75 l-30 -36 -26 39
c-14 21 -41 46 -60 55 -42 20 -130 22 -172 3z"/>
<path d="M3168 1235 c-64 -23 -106 -63 -140 -132 -28 -57 -32 -75 -32 -147 0
-110 23 -176 84 -237 78 -78 201 -99 325 -56 38 13 40 16 43 60 2 26 2 47 0
47 -2 0 -27 -9 -56 -20 -97 -37 -193 -22 -244 38 -39 47 -51 94 -46 183 7 121
57 182 160 195 38 5 72 -2 166 -31 21 -7 22 -4 22 38 l0 46 -52 16 c-63 18
-180 18 -230 0z"/>
<path d="M2285 1061 c-25 -50 -43 -134 -49 -232 l-5 -94 13 65 14 65 1 -141
c1 -127 -1 -143 -18 -158 -19 -17 -20 -17 -24 11 l-4 28 -8 -32 -7 -33 -100 0
c-93 0 -100 2 -125 26 l-26 26 6 203 c6 212 3 245 -19 245 -28 0 -34 -41 -34
-247 -1 -249 1 -245 -92 -247 l-63 -1 -9 -213 c-5 -117 -6 -215 -3 -218 3 -4
100 17 214 46 114 29 215 54 223 55 8 2 56 16 106 30 l91 27 12 155 c12 149
10 190 -7 144 -7 -19 -9 -20 -27 -7 -19 14 -20 25 -17 229 3 162 1 221 -9 239
-7 12 -12 31 -10 41 4 26 -7 21 -24 -12z"/>
<path d="M3358 1073 c7 -3 16 -2 19 1 4 3 -2 6 -13 5 -11 0 -14 -3 -6 -6z"/>
<path d="M3260 1023 c44 -19 189 -63 209 -63 33 0 -7 20 -100 49 -104 34 -173
42 -109 14z"/>
<path d="M3826 995 c-5 -18 -13 -25 -32 -25 -14 0 -23 -4 -19 -10 7 -12 79
-12 115 0 22 7 22 8 5 10 -11 1 -23 2 -26 2 -4 -1 -10 10 -13 23 -8 32 -22 32
-30 0z"/>
<path d="M3815 930 c-4 -6 7 -10 24 -10 17 0 31 5 31 10 0 6 -11 10 -24 10
-14 0 -28 -4 -31 -10z"/>
<path d="M2720 725 l0 -65 55 0 55 0 0 65 0 65 -55 0 -55 0 0 -65z"/>
<path d="M430 701 c-13 -28 -26 -51 -29 -51 -4 0 -51 11 -105 25 -106 27 -126
30 -126 17 0 -5 30 -14 68 -21 37 -7 91 -20 121 -30 l53 -19 24 55 c32 71 26
92 -6 24z"/>
<path d="M459 647 l-22 -45 27 -129 c35 -160 36 -163 46 -163 7 0 -22 156 -47
250 -7 27 -5 44 10 78 25 59 14 66 -14 9z"/>
<path d="M160 633 c0 -16 8 -23 33 -28 133 -28 168 -38 176 -54 5 -9 19 -67
32 -129 12 -62 27 -112 32 -112 9 0 7 14 -24 158 -24 109 -30 115 -145 139
-43 9 -85 23 -91 32 -11 13 -13 12 -13 -6z"/>
<path d="M3435 572 c39 -24 237 -130 602 -322 181 -96 288 -157 280 -162 -15
-10 2 -9 28 1 22 9 43 -3 -533 300 -211 110 -388 201 -395 201 -7 0 2 -8 18
-18z"/>
<path d="M3344 572 c8 -13 162 -98 559 -307 165 -86 313 -165 330 -176 34 -20
69 -27 51 -9 -6 6 -159 88 -340 184 -181 95 -392 206 -468 246 -77 40 -136 68
-132 62z"/>
<path d="M1029 478 c-76 -95 -119 -167 -119 -200 0 -10 5 -18 10 -18 6 0 10
11 10 24 0 30 47 101 133 199 37 42 67 79 67 82 0 3 -6 5 -14 5 -7 0 -47 -42
-87 -92z"/>
<path d="M2553 534 c47 -169 53 -184 69 -169 9 10 -47 178 -61 183 -9 3 -11
-2 -8 -14z"/>
</g>
</svg>
